# xmcd
#
# Track frame offsets:
#	150
#	19123
#	37149
#	51818
#	66899
#	87847
#	104371
#	123119
#	142354
#	159692
#	174942
#	194449
#	212152
#	235772
#	253870
#
# Disc length: 3655 seconds
#
# Revision: 0
# Processed by: cddbd v1.5.1PL2 Copyright (c) Steve Scherf et al.
# Submitted via: audiograbber 1.83.01
#
DISCID=d90e450f
DTITLE=Various Artist - CD Hot Country Hits - Vol 230
DYEAR=2002
DGENRE=Country
TTITLE0=Alan Jackson - Drive (For Daddy Gene)
TTITLE1=Gary Allan - The One
TTITLE2=Jamie Oneal - Frantic
TTITLE3=Andy Griggs - Tonight I Wanna Be Your Man
TTITLE4=Tracy Lawrence - What A Memory
TTITLE5=Reba McEntire - Sweet Music Man
TTITLE6=Randy Travis - America Will Always Stand
TTITLE7=Shannon Lawson - Goodbye On A Bad Day
TTITLE8=Meredith Edwards - Ready To Fall
TTITLE9=Jeffrey Steele - I Can Give You Love Like That
TTITLE10=Lonestar - Not A Day Goes By
TTITLE11=Danni Leigh - Sometimes
TTITLE12=Nickel Creek - The Lighthouse's Tale
TTITLE13=Pat Green - Three Days
TTITLE14=Shania Twain - The Heart Is Blind
EXTD=
EXTT0=
EXTT1=
EXTT2=
EXTT3=
EXTT4=
EXTT5=
EXTT6=
EXTT7=
EXTT8=
EXTT9=
EXTT10=
EXTT11=
EXTT12=
EXTT13=
EXTT14=
PLAYORDER=
